<?xml version="1.0" encoding="utf-8"?>
<!-- Generator: Adobe Illustrator 26.3.1, SVG Export Plug-In . SVG Version: 6.00 Build 0)  -->
<svg xmlns="http://www.w3.org/2000/svg" xmlns:xlink="http://www.w3.org/1999/xlink" version="1.1" id="Layer_1" x="0px" y="0px" style="enable-background:new 0 0 595.3 841.9;" xml:space="preserve" viewBox="3.38 301.89 426.04 221.03">
<style type="text/css">
	.st0{fill:#FFF200;stroke:#348B42;stroke-miterlimit:10;}
	.st1{fill:#428458;}
	.st2{stroke:#FFFFFF;stroke-miterlimit:10;}
</style>
<path class="st0" d="M224.7,361.4c-2.6-1.7-6.1-0.9-7.7,1.7l-49.5,79.2l0,0L143.3,481l0,0c-11.6-7.3-35.6-22.2-49.7-31.1  c-2.6-1.6-6-0.8-7.6,1.8l-42.6,68.1c-1.6,2.6-5.1,3.4-7.6,1.8L6.5,503.3c-2.6-1.6-3.4-5-1.8-7.6c16.4-26.3,50.6-81,66.7-106.8  c1.6-2.6,5-3.4,7.6-1.8l45,28.1c2.6,1.6,6,0.8,7.6-1.8l46.9-75.1c1.6-2.6,0.9-6-1.7-7.6l-9.7-6.2c-4.2-2.7-3-9.1,1.9-10.1l56-11.9  c3-0.6,5.9,1.3,6.6,4.3l11.8,55.4c1,4.8-4.3,8.5-8.4,5.8L224.7,361.4z"/>
<g>
	<g>
		<path class="st1" d="M204.2,395l-45,70.6c-1.3,2,0.2,4.6,2.5,4.6h41c1.7,0,3,1.3,3,3v7.4c0,1.7-1.3,3-3,3h-62.5c-1.7,0-3-1.3-3-3    v-8.3c0-0.6,0.2-1.1,0.5-1.6l44.9-69.9c1.3-2-0.2-4.6-2.5-4.6h-38.4c-1.7,0-3-1.3-3-3v-7.4c0-1.7,1.3-3,3-3h59.6c1.7,0,3,1.3,3,3    L204.2,395L204.2,395z"/>
		<path class="st1" d="M307.2,382.7h9.6c1.7,0,3,1.3,3,3v94.9c0,1.7-1.3,3-3,3h-9.1c-1.7,0-3-1.3-3-3V408l0.6,3.5    c0.1,0.6,0,1.2-0.2,1.8l-25.9,54.5c-0.5,1.1-1.6,1.7-2.7,1.7h-7c-1.2,0-2.2-0.7-2.7-1.7l-25.9-53.2c-0.3-0.5-0.4-1.1-0.3-1.7    l0.6-4.9v72.6c0,1.7-1.3,3-3,3h-9.1c-1.7,0-3-1.3-3-3v-94.9c0-1.7,1.3-3,3-3h9.6c1.2,0,2.2,0.7,2.7,1.7l28.8,59.4    c1.1,2.3,4.3,2.3,5.4,0l28.8-59.4C305,383.4,306.1,382.7,307.2,382.7z"/>
		<path class="st1" d="M379.1,382.7h9.1c1.2,0,2.3,0.7,2.8,1.9l38.2,94.9c0.8,2-0.7,4.1-2.8,4.1h-10.1c-1.3,0-2.4-0.8-2.8-2    l-27-71.9c-1-2.6-4.7-2.6-5.6,0l-27,71.9c-0.4,1.2-1.6,2-2.8,2H341c-2.1,0-3.6-2.2-2.8-4.1l38.2-94.9    C376.8,383.5,377.9,382.7,379.1,382.7z M358.2,448.1h51.9c1.7,0,3,1.3,3,3v7.4c0,1.7-1.3,3-3,3h-51.9c-1.7,0-3-1.3-3-3v-7.4    C355.2,449.4,356.5,448.1,358.2,448.1z"/>
	</g>
</g>
<g>
	<g>
		<path class="st2" d="M138.2,496.6l0.6-0.6c0.6,0.5,1.4,0.8,2.3,0.8c1.1,0,1.7-0.4,1.7-1.1s-0.6-0.9-1.4-1.2l-1.1-0.4    c-0.8-0.3-1.7-0.7-1.7-1.7s1.1-1.8,2.5-1.8c1,0,1.8,0.3,2.4,0.8L143,492c-0.5-0.4-1.1-0.6-1.9-0.6c-0.9,0-1.5,0.4-1.5,1    s0.7,0.9,1.4,1.1l1.1,0.4c1,0.3,1.7,0.8,1.7,1.8c0,1.1-1,1.9-2.7,1.9C139.9,497.6,138.9,497.2,138.2,496.6z"/>
		<path class="st2" d="M145.1,494.1c0-2.2,1.2-3.4,3-3.4c1.7,0,3,1.3,3,3.4c0,2.2-1.2,3.5-3,3.5S145.1,496.3,145.1,494.1z     M150,494.1c0-1.7-0.8-2.7-1.9-2.7c-1.2,0-1.9,1-1.9,2.7s0.8,2.7,1.9,2.7C149.2,496.8,150,495.8,150,494.1z"/>
		<path class="st2" d="M152.4,494.1c0-2.2,1.5-3.5,3.5-3.5c0.9,0,1.7,0.4,2.1,0.8l-0.6,0.5c-0.4-0.4-0.9-0.6-1.6-0.6    c-1.5,0-2.4,1-2.4,2.7s1,2.7,2.4,2.7c0.7,0,1.2-0.3,1.7-0.7l0.6,0.5c-0.6,0.6-1.4,1-2.4,1C153.8,497.6,152.4,496.3,152.4,494.1z"/>
		<path class="st2" d="M159.8,496.7h1.9v-5.2h-1.9v-0.7h4.8v0.7h-1.9v5.2h1.9v0.7h-4.8V496.7z"/>
		<path class="st2" d="M168.7,490.8h1.1l2.6,6.7h-1.1l-1.3-3.7c-0.3-0.7-0.5-1.5-0.8-2.3l0,0c-0.2,0.8-0.5,1.5-0.8,2.3l-1.4,3.7h-1    L168.7,490.8z M167.5,494.7h3.5v0.7h-3.5V494.7z"/>
		<path class="st2" d="M174.4,490.8h1v6h3.8v0.7h-4.8V490.8z"/>
		<path class="st2" d="M187.8,490.8h1.2l1.1,2.9l0.4,1.1l0,0l0.4-1.1l1.1-2.9h1.2v6.7h-0.9v-3.3c0-0.7,0.1-1.8,0.2-2.4l0,0l-0.4,1.3    l-1.1,2.6h-0.7l-1.1-2.6l-0.4-1.3l0,0c0.1,0.6,0.2,1.7,0.2,2.4v3.3h-0.9L187.8,490.8L187.8,490.8z"/>
		<path class="st2" d="M195.4,490.8h4.8v0.7h-3.8v2.1h3.2v0.7h-3.2v2.4h3.9v0.7h-4.9V490.8L195.4,490.8z"/>
		<path class="st2" d="M202.1,490.8h1.9c2.3,0,3.6,1.2,3.6,3.3c0,2.1-1.3,3.4-3.5,3.4h-2V490.8L202.1,490.8z M204,496.8    c1.8,0,2.6-1,2.6-2.7s-0.9-2.6-2.6-2.6h-0.8v5.3L204,496.8L204,496.8z"/>
		<path class="st2" d="M209.3,496.7h1.9v-5.2h-1.9v-0.7h4.8v0.7h-1.9v5.2h1.9v0.7h-4.8V496.7L209.3,496.7z"/>
		<path class="st2" d="M218.2,490.8h1.1l2.6,6.7h-1.1l-1.3-3.7c-0.3-0.7-0.5-1.5-0.8-2.3l0,0c-0.2,0.8-0.5,1.5-0.8,2.3l-1.4,3.7h-1    L218.2,490.8z M217,494.7h3.5v0.7H217V494.7z"/>
		<path class="st2" d="M230.3,490.8h1.2l1.1,2.9l0.4,1.1l0,0l0.4-1.1l1.1-2.9h1.2v6.7h-0.9v-3.3c0-0.7,0.1-1.8,0.2-2.4l0,0l-0.4,1.3    l-1.1,2.6h-0.7l-1.1-2.6l-0.4-1.3l0,0c0.1,0.6,0.2,1.7,0.2,2.4v3.3h-0.9L230.3,490.8L230.3,490.8z"/>
		<path class="st2" d="M239.5,490.8h1.1l2.6,6.7h-1.1l-1.3-3.7c-0.3-0.7-0.5-1.5-0.8-2.3l0,0c-0.2,0.8-0.5,1.5-0.8,2.3l-1.4,3.7h-1    L239.5,490.8z M238.2,494.7h3.5v0.7h-3.5V494.7z"/>
		<path class="st2" d="M244.7,490.8h2.4c1.6,0,2.7,0.5,2.7,1.9c0,1.3-1.1,2-2.7,2h-1.4v2.8h-1V490.8L244.7,490.8z M247,493.9    c1.2,0,1.9-0.4,1.9-1.3s-0.7-1.2-1.9-1.2h-1.3v2.5H247L247,493.9z M247.7,494l2.4,3.5H249l-2-3.1L247.7,494z"/>
		<path class="st2" d="M251.8,490.8h1v3.3l0,0l3.2-3.3h1.1l-4.4,4.6v2.1h-1L251.8,490.8L251.8,490.8z M254,493.7l0.6-0.7l2.9,4.4    h-1.1L254,493.7z"/>
		<path class="st2" d="M259.1,490.8h4.8v0.7h-3.8v2.1h3.2v0.7h-3.2v2.4h3.9v0.7h-4.9V490.8L259.1,490.8z"/>
		<path class="st2" d="M267.8,491.5h-2.6v-0.7h6.1v0.7h-2.6v6h-1v-6H267.8z"/>
		<path class="st2" d="M273,496.7h1.9v-5.2H273v-0.7h4.8v0.7h-1.9v5.2h1.9v0.7H273V496.7z"/>
		<path class="st2" d="M279.9,490.8h1.1l2.5,4.2l0.7,1.4l0,0c0-0.7-0.1-1.4-0.1-2.1v-3.5h0.9v6.7h-1l-2.5-4.2l-0.7-1.4l0,0    c0,0.7,0.1,1.4,0.1,2.1v3.5H280v-6.7H279.9z"/>
		<path class="st2" d="M286.6,494.1c0-2.2,1.4-3.5,3.4-3.5c1,0,1.7,0.4,2.1,0.8l-0.6,0.5c-0.4-0.3-0.8-0.6-1.6-0.6    c-1.5,0-2.4,1-2.4,2.7s0.9,2.7,2.4,2.7c0.5,0,1.1-0.1,1.3-0.4v-1.7h-1.5V494h2.5v2.8c-0.5,0.4-1.3,0.8-2.3,0.8    C288,497.6,286.6,496.3,286.6,494.1z"/>
		<path class="st2" d="M303.1,490.8h1.1l2.6,6.7h-1.1l-1.3-3.7c-0.3-0.7-0.5-1.5-0.8-2.3l0,0c-0.2,0.8-0.5,1.5-0.8,2.3l-1.4,3.7h-1    L303.1,490.8z M301.9,494.7h3.5v0.7h-3.5V494.7z"/>
		<path class="st2" d="M307.9,494.1c0-2.2,1.4-3.5,3.4-3.5c1,0,1.7,0.4,2.1,0.8l-0.6,0.5c-0.4-0.3-0.8-0.6-1.6-0.6    c-1.5,0-2.4,1-2.4,2.7s0.9,2.7,2.4,2.7c0.5,0,1.1-0.1,1.3-0.4v-1.7H311V494h2.5v2.8c-0.5,0.4-1.3,0.8-2.3,0.8    C309.3,497.6,307.9,496.3,307.9,494.1z"/>
		<path class="st2" d="M315.7,490.8h4.8v0.7h-3.8v2.1h3.2v0.7h-3.2v2.4h3.9v0.7h-4.9V490.8L315.7,490.8z"/>
		<path class="st2" d="M322.4,490.8h1.1l2.5,4.2l0.7,1.4l0,0c0-0.7-0.1-1.4-0.1-2.1v-3.5h0.9v6.7h-1.1l-2.5-4.2l-0.7-1.4l0,0    c0,0.7,0.1,1.4,0.1,2.1v3.5h-0.9V490.8z"/>
		<path class="st2" d="M329.2,494.1c0-2.2,1.5-3.5,3.5-3.5c0.9,0,1.7,0.4,2.1,0.8l-0.6,0.5c-0.4-0.4-0.9-0.6-1.6-0.6    c-1.5,0-2.4,1-2.4,2.7s1,2.7,2.4,2.7c0.7,0,1.2-0.3,1.7-0.7l0.6,0.5c-0.6,0.6-1.4,1-2.4,1C330.7,497.6,329.2,496.3,329.2,494.1z"/>
		<path class="st2" d="M338.6,495.1l-2.6-4.3h1.1l1.2,2c0.3,0.5,0.6,1,0.9,1.6l0,0c0.3-0.5,0.6-1,0.9-1.6l1.1-2h1l-2.6,4.3v2.4h-1    V495.1z"/>
	</g>
</g>
</svg>